<mxfile host="app.diagrams.net" agent="Mozilla/5.0 (Macintosh; Intel Mac OS X 10_15_7) AppleWebKit/537.36 (KHTML, like Gecko) Chrome/131.0.0.0 Safari/537.36 Edg/131.0.0.0" version="26.0.4">
  <diagram name="第 1 页" id="h9YyRqE6uHGr4lUD16GJ">
    <mxGraphModel dx="3727" dy="2517" grid="0" gridSize="10" guides="1" tooltips="1" connect="1" arrows="1" fold="1" page="1" pageScale="1" pageWidth="1169" pageHeight="827" math="1" shadow="0">
      <root>
        <mxCell id="0" />
        <mxCell id="1" parent="0" />
        <mxCell id="_lGmPWogJOjAXytLMEd4-229" value="" style="rounded=1;whiteSpace=wrap;html=1;strokeWidth=4;dashed=1;strokeColor=#EA6B66;dashPattern=1 2;fontSize=14;" parent="1" vertex="1">
          <mxGeometry x="219" y="87" width="295" height="49" as="geometry" />
        </mxCell>
        <mxCell id="_lGmPWogJOjAXytLMEd4-170" value="&lt;font face=&quot;Courier New&quot; style=&quot;color: rgb(0, 102, 102);&quot;&gt;&lt;b&gt;alt&lt;/b&gt;&lt;/font&gt;" style="shape=umlFrame;whiteSpace=wrap;html=1;pointerEvents=0;width=48;height=21;fillColor=#b0e3e6;strokeColor=#0e8088;fillStyle=auto;shadow=0;strokeWidth=4;gradientColor=none;swimlaneFillColor=light-dark(#F4FDFF,#002813);fontSize=14;" parent="1" vertex="1">
          <mxGeometry x="211" y="147" width="308" height="73" as="geometry" />
        </mxCell>
        <mxCell id="_lGmPWogJOjAXytLMEd4-171" value="&lt;font face=&quot;Helvetica&quot; style=&quot;color: rgb(0, 102, 0);&quot;&gt;&lt;b&gt;PCS&lt;/b&gt;&lt;/font&gt;" style="shape=umlLifeline;perimeter=lifelinePerimeter;whiteSpace=wrap;html=1;container=1;dropTarget=0;collapsible=0;recursiveResize=0;outlineConnect=0;portConstraint=eastwest;newEdgeStyle={&quot;curved&quot;:0,&quot;rounded&quot;:0};size=19;fillColor=#d5e8d4;strokeColor=#82b366;strokeWidth=4;rounded=1;shadow=0;fontSize=14;" parent="1" vertex="1">
          <mxGeometry x="223" y="59" width="80" height="201" as="geometry" />
        </mxCell>
        <mxCell id="_lGmPWogJOjAXytLMEd4-172" value="&lt;font face=&quot;Helvetica&quot; style=&quot;color: rgb(0, 102, 0);&quot;&gt;&lt;b&gt;FCA&lt;/b&gt;&lt;/font&gt;" style="shape=umlLifeline;perimeter=lifelinePerimeter;whiteSpace=wrap;html=1;container=1;dropTarget=0;collapsible=0;recursiveResize=0;outlineConnect=0;portConstraint=eastwest;newEdgeStyle={&quot;curved&quot;:0,&quot;rounded&quot;:0};size=19;fillColor=#d5e8d4;strokeColor=#82b366;strokeWidth=4;rounded=1;shadow=0;fontSize=14;" parent="1" vertex="1">
          <mxGeometry x="438" y="59" width="80" height="205" as="geometry" />
        </mxCell>
        <mxCell id="_lGmPWogJOjAXytLMEd4-173" value="&lt;font face=&quot;Helvetica&quot; style=&quot;color: rgb(0, 102, 0);&quot;&gt;&lt;b&gt;SCS&lt;/b&gt;&lt;/font&gt;" style="shape=umlLifeline;perimeter=lifelinePerimeter;whiteSpace=wrap;html=1;container=1;dropTarget=0;collapsible=0;recursiveResize=0;outlineConnect=0;portConstraint=eastwest;newEdgeStyle={&quot;curved&quot;:0,&quot;rounded&quot;:0};size=19;fillColor=#d5e8d4;strokeColor=#82b366;strokeWidth=4;rounded=1;shadow=0;fontSize=14;" parent="1" vertex="1">
          <mxGeometry x="329.5" y="59" width="80" height="205" as="geometry" />
        </mxCell>
        <mxCell id="_lGmPWogJOjAXytLMEd4-175" value="&lt;font face=&quot;Courier New&quot; style=&quot;color: rgb(0, 76, 153); font-size: 16px;&quot;&gt;&lt;b style=&quot;&quot;&gt;aircraft system&lt;/b&gt;&lt;/font&gt;" style="shape=umlFrame;whiteSpace=wrap;html=1;pointerEvents=0;width=171;height=29;fillColor=#dae8fc;strokeColor=#6c8ebf;strokeWidth=4;shadow=1;fontSize=14;" parent="1" vertex="1">
          <mxGeometry x="202" y="20" width="345" height="243" as="geometry" />
        </mxCell>
        <mxCell id="_lGmPWogJOjAXytLMEd4-176" value="" style="html=1;verticalAlign=bottom;endArrow=blockThin;curved=0;rounded=1;endFill=1;strokeColor=#666666;strokeWidth=3;endSize=4;fontSize=14;" parent="1" edge="1">
          <mxGeometry x="-0.0002" width="80" relative="1" as="geometry">
            <mxPoint x="264.0409090909092" y="103" as="sourcePoint" />
            <mxPoint x="368" y="103" as="targetPoint" />
            <mxPoint as="offset" />
          </mxGeometry>
        </mxCell>
        <mxCell id="_lGmPWogJOjAXytLMEd4-178" value="" style="html=1;verticalAlign=bottom;endArrow=blockThin;curved=0;rounded=0;endFill=1;strokeWidth=3;strokeColor=light-dark(#666666,#EDEDED);startSize=6;endSize=4;fontSize=14;" parent="1" edge="1">
          <mxGeometry x="-0.0008" width="80" relative="1" as="geometry">
            <mxPoint x="264" y="120.13" as="sourcePoint" />
            <mxPoint x="477.87" y="120.13" as="targetPoint" />
            <mxPoint as="offset" />
          </mxGeometry>
        </mxCell>
        <mxCell id="_lGmPWogJOjAXytLMEd4-201" value="&lt;font style=&quot;font-size: 19px;&quot; color=&quot;#666666&quot;&gt;&lt;b style=&quot;&quot;&gt;\(e_2\)&lt;/b&gt;&lt;/font&gt;" style="text;html=1;align=center;verticalAlign=middle;resizable=0;points=[];autosize=1;strokeColor=none;fillColor=none;strokeWidth=4;fontSize=14;" parent="1" vertex="1">
          <mxGeometry x="209.25" y="99.97" width="73" height="35" as="geometry" />
        </mxCell>
        <mxCell id="_lGmPWogJOjAXytLMEd4-166" value="&lt;b&gt;&lt;font face=&quot;Comic Sans MS&quot;&gt;...&lt;/font&gt;&lt;/b&gt;" style="text;html=1;align=center;verticalAlign=middle;resizable=0;points=[];autosize=1;strokeColor=none;fillColor=none;strokeWidth=4;fontSize=14;" parent="1" vertex="1">
          <mxGeometry x="407.39" y="163.5" width="36" height="30" as="geometry" />
        </mxCell>
        <mxCell id="_lGmPWogJOjAXytLMEd4-228" value="&lt;b&gt;&lt;font face=&quot;Comic Sans MS&quot;&gt;...&lt;/font&gt;&lt;/b&gt;" style="text;html=1;align=center;verticalAlign=middle;resizable=0;points=[];autosize=1;strokeColor=none;fillColor=none;strokeWidth=4;fontSize=14;" parent="1" vertex="1">
          <mxGeometry x="408" y="225.75" width="36" height="30" as="geometry" />
        </mxCell>
        <mxCell id="_lGmPWogJOjAXytLMEd4-241" value="&lt;b&gt;&lt;font face=&quot;Comic Sans MS&quot;&gt;...&lt;/font&gt;&lt;/b&gt;" style="text;html=1;align=center;verticalAlign=middle;resizable=0;points=[];autosize=1;strokeColor=none;fillColor=none;strokeWidth=4;fontSize=14;" parent="1" vertex="1">
          <mxGeometry x="301" y="163.5" width="36" height="30" as="geometry" />
        </mxCell>
        <mxCell id="_lGmPWogJOjAXytLMEd4-242" value="&lt;b&gt;&lt;font face=&quot;Comic Sans MS&quot;&gt;...&lt;/font&gt;&lt;/b&gt;" style="text;html=1;align=center;verticalAlign=middle;resizable=0;points=[];autosize=1;strokeColor=none;fillColor=none;strokeWidth=4;fontSize=14;" parent="1" vertex="1">
          <mxGeometry x="301" y="223.5" width="36" height="30" as="geometry" />
        </mxCell>
        <mxCell id="_lGmPWogJOjAXytLMEd4-278" style="rounded=0;orthogonalLoop=1;jettySize=auto;html=1;exitX=1;exitY=0;exitDx=0;exitDy=0;entryX=0.006;entryY=0.08;entryDx=0;entryDy=0;endArrow=none;endFill=0;entryPerimeter=0;strokeWidth=4;endSize=5;strokeColor=light-dark(#b85450, #ededed);curved=1;fontSize=14;" parent="1" source="_lGmPWogJOjAXytLMEd4-229" target="_lGmPWogJOjAXytLMEd4-231" edge="1">
          <mxGeometry relative="1" as="geometry" />
        </mxCell>
        <mxCell id="_lGmPWogJOjAXytLMEd4-279" style="rounded=0;orthogonalLoop=1;jettySize=auto;html=1;entryX=0.024;entryY=0.95;entryDx=0;entryDy=0;endArrow=none;endFill=0;entryPerimeter=0;strokeWidth=4;endSize=5;strokeColor=light-dark(#b85450, #ededed);curved=1;fontSize=14;exitX=1;exitY=1;exitDx=0;exitDy=0;" parent="1" target="_lGmPWogJOjAXytLMEd4-231" edge="1" source="_lGmPWogJOjAXytLMEd4-229">
          <mxGeometry relative="1" as="geometry">
            <mxPoint x="533" y="135.5" as="sourcePoint" />
            <mxPoint x="566" y="68.5" as="targetPoint" />
          </mxGeometry>
        </mxCell>
        <mxCell id="2NGLu3flXbiZgfrD2o1z-119" value="&lt;font style=&quot;font-size: 19px;&quot; color=&quot;#666666&quot;&gt;&lt;b style=&quot;&quot;&gt;\(e_0\)&lt;/b&gt;&lt;/font&gt;" style="text;html=1;align=center;verticalAlign=middle;resizable=0;points=[];autosize=1;strokeColor=none;fillColor=none;strokeWidth=4;fontSize=14;" vertex="1" parent="1">
          <mxGeometry x="210.25" y="83" width="73" height="35" as="geometry" />
        </mxCell>
        <mxCell id="2NGLu3flXbiZgfrD2o1z-120" value="&lt;font style=&quot;font-size: 19px;&quot; color=&quot;#666666&quot;&gt;&lt;b style=&quot;&quot;&gt;\(e_1\)&lt;/b&gt;&lt;/font&gt;" style="text;html=1;align=center;verticalAlign=middle;resizable=0;points=[];autosize=1;strokeColor=none;fillColor=none;strokeWidth=4;fontSize=14;" vertex="1" parent="1">
          <mxGeometry x="348" y="83" width="73" height="35" as="geometry" />
        </mxCell>
        <mxCell id="2NGLu3flXbiZgfrD2o1z-121" value="&lt;font style=&quot;font-size: 19px;&quot; color=&quot;#666666&quot;&gt;&lt;b style=&quot;&quot;&gt;\(e_3\)&lt;/b&gt;&lt;/font&gt;" style="text;html=1;align=center;verticalAlign=middle;resizable=0;points=[];autosize=1;strokeColor=none;fillColor=none;strokeWidth=4;fontSize=14;" vertex="1" parent="1">
          <mxGeometry x="454" y="101" width="73" height="35" as="geometry" />
        </mxCell>
        <mxCell id="2NGLu3flXbiZgfrD2o1z-135" value="" style="group" vertex="1" connectable="0" parent="1">
          <mxGeometry x="6" y="11" width="184" height="283" as="geometry" />
        </mxCell>
        <mxCell id="2NGLu3flXbiZgfrD2o1z-123" value="" style="group;strokeWidth=4;dashed=1;shadow=1;rounded=0;fontSize=14;" vertex="1" connectable="0" parent="2NGLu3flXbiZgfrD2o1z-135">
          <mxGeometry x="0.5" width="181" height="172" as="geometry" />
        </mxCell>
        <mxCell id="2NGLu3flXbiZgfrD2o1z-124" value="" style="shape=note;whiteSpace=wrap;html=1;backgroundOutline=1;darkOpacity=0.05;strokeColor=#9673a6;strokeWidth=4;fillColor=light-dark(#faf5ff, #392f3f);shadow=1;fontSize=14;size=23;" vertex="1" parent="2NGLu3flXbiZgfrD2o1z-123">
          <mxGeometry y="10" width="181" height="144" as="geometry" />
        </mxCell>
        <mxCell id="2NGLu3flXbiZgfrD2o1z-118" value="&lt;div style=&quot;line-height: 100%;&quot;&gt;&lt;font face=&quot;Helvetica&quot; style=&quot;font-size: 18px; line-height: 100%;&quot;&gt;&lt;span style=&quot;background-color: transparent; color: light-dark(rgb(0, 0, 0), rgb(255, 255, 255)); text-wrap-mode: nowrap;&quot;&gt;\(0 &amp;lt; e_1 - e_0 &amp;lt; 2\)&lt;/span&gt;&lt;/font&gt;&lt;/div&gt;&lt;div style=&quot;line-height: 100%;&quot;&gt;&lt;font face=&quot;Helvetica&quot; style=&quot;font-size: 18px; line-height: 100%;&quot;&gt;&lt;span style=&quot;background-color: transparent; color: light-dark(rgb(0, 0, 0), rgb(255, 255, 255));&quot;&gt;\(1 &amp;lt; e_4 - e_2 &amp;lt; 10\)&lt;/span&gt;&lt;/font&gt;&lt;/div&gt;&lt;div style=&quot;line-height: 100%;&quot;&gt;&lt;font face=&quot;Helvetica&quot; style=&quot;font-size: 18px; line-height: 100%;&quot;&gt;&lt;span style=&quot;text-wrap-mode: nowrap;&quot;&gt;\(2 &amp;lt; e_5 - e_4 &amp;lt; 6\)&lt;/span&gt;&lt;span style=&quot;background-color: transparent; color: light-dark(rgb(0, 0, 0), rgb(255, 255, 255));&quot;&gt;&lt;/span&gt;&lt;/font&gt;&lt;/div&gt;&lt;div style=&quot;line-height: 100%;&quot;&gt;&lt;font face=&quot;Helvetica&quot; style=&quot;font-size: 18px; line-height: 100%;&quot;&gt;&lt;span style=&quot;text-wrap-mode: nowrap;&quot;&gt;\(0 &amp;lt; e_9 - e_6 &amp;lt; 8\)&lt;/span&gt;&lt;/font&gt;&lt;/div&gt;&lt;div style=&quot;line-height: 100%;&quot;&gt;&lt;font face=&quot;Helvetica&quot; style=&quot;font-size: 18px; line-height: 100%;&quot;&gt;\(2 &amp;lt; e_{16} - e_{14} &amp;lt; 5\)&lt;/font&gt;&lt;div&gt;&lt;font face=&quot;Helvetica&quot; style=&quot;font-size: 18px; line-height: 100%;&quot;&gt;\(5 &amp;lt; e_{12} - e_{17} &amp;lt; 12\)&lt;/font&gt;&lt;/div&gt;&lt;/div&gt;" style="text;html=1;align=left;verticalAlign=middle;whiteSpace=wrap;rounded=0;" vertex="1" parent="2NGLu3flXbiZgfrD2o1z-123">
          <mxGeometry x="3.57" y="23" width="166.87" height="132" as="geometry" />
        </mxCell>
        <mxCell id="2NGLu3flXbiZgfrD2o1z-127" value="&lt;span style=&quot;font-style: normal; font-variant-ligatures: normal; font-variant-caps: normal; letter-spacing: normal; orphans: 2; text-align: left; text-indent: 0px; text-transform: none; widows: 2; word-spacing: 0px; -webkit-text-stroke-width: 0px; white-space: nowrap; text-decoration-thickness: initial; text-decoration-style: initial; text-decoration-color: initial; float: none; display: inline !important;&quot;&gt;&lt;font face=&quot;Courier New&quot; style=&quot;color: rgb(76, 0, 153); font-size: 20px;&quot;&gt;&lt;b style=&quot;&quot;&gt;Constraint&lt;/b&gt;&lt;/font&gt;&lt;/span&gt;" style="text;whiteSpace=wrap;html=1;shadow=1;rounded=1;" vertex="1" parent="2NGLu3flXbiZgfrD2o1z-123">
          <mxGeometry x="15" y="3" width="147" height="26" as="geometry" />
        </mxCell>
        <mxCell id="2NGLu3flXbiZgfrD2o1z-128" value="" style="shape=note;whiteSpace=wrap;html=1;backgroundOutline=1;darkOpacity=0.05;strokeColor=#9673a6;strokeWidth=4;fillColor=light-dark(#faf5ff, #392f3f);shadow=1;fontSize=14;size=22;" vertex="1" parent="2NGLu3flXbiZgfrD2o1z-135">
          <mxGeometry x="0.5" y="173" width="181" height="75" as="geometry" />
        </mxCell>
        <mxCell id="2NGLu3flXbiZgfrD2o1z-133" value="&lt;span style=&quot;font-style: normal; font-variant-ligatures: normal; font-variant-caps: normal; letter-spacing: normal; orphans: 2; text-align: left; text-indent: 0px; text-transform: none; widows: 2; word-spacing: 0px; -webkit-text-stroke-width: 0px; white-space: nowrap; text-decoration-thickness: initial; text-decoration-style: initial; text-decoration-color: initial; float: none; display: inline !important;&quot;&gt;&lt;font face=&quot;Courier New&quot; style=&quot;color: rgb(76, 0, 153); font-size: 20px;&quot;&gt;&lt;b style=&quot;&quot;&gt;Property&lt;/b&gt;&lt;/font&gt;&lt;/span&gt;" style="text;whiteSpace=wrap;html=1;shadow=1;rounded=1;" vertex="1" parent="2NGLu3flXbiZgfrD2o1z-135">
          <mxGeometry x="25.50000000000002" y="166" width="146.8" height="25.57" as="geometry" />
        </mxCell>
        <mxCell id="2NGLu3flXbiZgfrD2o1z-134" value="&lt;font style=&quot;font-size: 18px;&quot;&gt;\(0 &amp;lt; e_{10} - e_3 &amp;lt; 50\)&lt;/font&gt;&lt;div&gt;&lt;span style=&quot;font-size: 18px;&quot;&gt;\(0 &amp;lt; e_3 - e_0\)&lt;/span&gt;&lt;/div&gt;" style="text;html=1;align=left;verticalAlign=middle;whiteSpace=wrap;rounded=0;" vertex="1" parent="2NGLu3flXbiZgfrD2o1z-135">
          <mxGeometry x="7" y="204" width="177.5" height="29" as="geometry" />
        </mxCell>
        <mxCell id="2NGLu3flXbiZgfrD2o1z-140" value="" style="group" vertex="1" connectable="0" parent="1">
          <mxGeometry x="551.73" y="38.58" width="225.27" height="159.85" as="geometry" />
        </mxCell>
        <mxCell id="_lGmPWogJOjAXytLMEd4-231" value="" style="rounded=1;whiteSpace=wrap;html=1;strokeWidth=4;fillColor=#FFFFFF;strokeColor=light-dark(#6c8ebf, #a0bcd2);fontSize=14;" parent="2NGLu3flXbiZgfrD2o1z-140" vertex="1">
          <mxGeometry x="14.457482412101948" width="199.79345390714917" height="154.95000000000002" as="geometry" />
        </mxCell>
        <mxCell id="_lGmPWogJOjAXytLMEd4-233" value="&lt;font style=&quot;color: rgb(0, 102, 0);&quot;&gt;&lt;b&gt;FCA&lt;/b&gt;&lt;/font&gt;" style="shape=umlLifeline;perimeter=lifelinePerimeter;whiteSpace=wrap;html=1;container=1;dropTarget=0;collapsible=0;recursiveResize=0;outlineConnect=0;portConstraint=eastwest;newEdgeStyle={&quot;curved&quot;:0,&quot;rounded&quot;:0};size=20;fontSize=14;strokeWidth=4;fillColor=#d5e8d4;strokeColor=#82b366;rounded=1;" parent="2NGLu3flXbiZgfrD2o1z-140" vertex="1">
          <mxGeometry x="142.14450252951102" y="14.500000000000004" width="40.57918536775198" height="120.45000000000003" as="geometry" />
        </mxCell>
        <mxCell id="_lGmPWogJOjAXytLMEd4-234" value="&lt;font style=&quot;color: rgb(0, 102, 0);&quot;&gt;&lt;b&gt;SCS&lt;/b&gt;&lt;/font&gt;" style="shape=umlLifeline;perimeter=lifelinePerimeter;whiteSpace=wrap;html=1;container=1;dropTarget=0;collapsible=0;recursiveResize=0;outlineConnect=0;portConstraint=eastwest;newEdgeStyle={&quot;curved&quot;:0,&quot;rounded&quot;:0};size=20;fontSize=14;strokeWidth=4;fillColor=#d5e8d4;strokeColor=#82b366;rounded=1;" parent="2NGLu3flXbiZgfrD2o1z-140" vertex="1">
          <mxGeometry x="87.74645609028407" y="14.500000000000004" width="40.57918536775198" height="120.45000000000003" as="geometry" />
        </mxCell>
        <mxCell id="_lGmPWogJOjAXytLMEd4-235" value="&lt;font style=&quot;color: rgb(0, 102, 0);&quot;&gt;&lt;b&gt;PCS&lt;/b&gt;&lt;/font&gt;" style="shape=umlLifeline;perimeter=lifelinePerimeter;whiteSpace=wrap;html=1;container=1;dropTarget=0;collapsible=0;recursiveResize=0;outlineConnect=0;portConstraint=eastwest;newEdgeStyle={&quot;curved&quot;:0,&quot;rounded&quot;:0};size=20;fontSize=14;strokeWidth=4;fillColor=#d5e8d4;strokeColor=#82b366;rounded=1;" parent="2NGLu3flXbiZgfrD2o1z-140" vertex="1">
          <mxGeometry x="32.14385782851213" y="14.500000000000004" width="40.57918536775198" height="120.45000000000003" as="geometry" />
        </mxCell>
        <mxCell id="_lGmPWogJOjAXytLMEd4-237" value="&lt;div&gt;&lt;div&gt;&lt;div&gt;&lt;br&gt;&lt;/div&gt;&lt;/div&gt;&lt;/div&gt;" style="text;align=left;verticalAlign=middle;rounded=0;horizontal=1;fontSize=14;html=1;strokeWidth=4;" parent="2NGLu3flXbiZgfrD2o1z-140" vertex="1">
          <mxGeometry x="64.368887015177" y="144.54999999999998" width="112.82818783240367" height="15.300000000000002" as="geometry" />
        </mxCell>
        <mxCell id="_lGmPWogJOjAXytLMEd4-246" value="" style="html=1;verticalAlign=bottom;endArrow=blockThin;curved=0;rounded=0;endFill=1;strokeWidth=3;strokeColor=light-dark(#666666,#EDEDED);startSize=6;endSize=4;fontSize=14;" parent="2NGLu3flXbiZgfrD2o1z-140" edge="1" target="_lGmPWogJOjAXytLMEd4-233">
          <mxGeometry x="-0.0008" width="80" relative="1" as="geometry">
            <mxPoint x="52.648166400649735" y="87.06500000000013" as="sourcePoint" />
            <mxPoint x="176.06067583344156" y="87.06500000000013" as="targetPoint" />
            <mxPoint as="offset" />
          </mxGeometry>
        </mxCell>
        <mxCell id="_lGmPWogJOjAXytLMEd4-232" value="" style="html=1;verticalAlign=bottom;endArrow=blockThin;curved=0;rounded=0;strokeWidth=3;endSize=4;endFill=1;strokeColor=#666666;fontSize=14;" parent="2NGLu3flXbiZgfrD2o1z-140" target="_lGmPWogJOjAXytLMEd4-234" edge="1">
          <mxGeometry width="80" relative="1" as="geometry">
            <mxPoint x="53.30314363545405" y="57.00111111111114" as="sourcePoint" />
            <mxPoint x="176.21652484109492" y="57.001111111111314" as="targetPoint" />
            <Array as="points">
              <mxPoint x="74.1210459018216" y="57.00111111111114" />
            </Array>
          </mxGeometry>
        </mxCell>
        <mxCell id="2NGLu3flXbiZgfrD2o1z-136" value="&lt;font style=&quot;font-size: 19px;&quot; color=&quot;#666666&quot;&gt;&lt;b style=&quot;&quot;&gt;\(e_0\)&lt;/b&gt;&lt;/font&gt;" style="text;html=1;align=center;verticalAlign=middle;resizable=0;points=[];autosize=1;strokeColor=none;fillColor=none;strokeWidth=4;fontSize=14;" vertex="1" parent="2NGLu3flXbiZgfrD2o1z-140">
          <mxGeometry x="1.6169334544039127" y="36.50000000000001" width="73" height="35" as="geometry" />
        </mxCell>
        <mxCell id="2NGLu3flXbiZgfrD2o1z-137" value="&lt;font style=&quot;font-size: 19px;&quot; color=&quot;#666666&quot;&gt;&lt;b style=&quot;&quot;&gt;\(e_1\)&lt;/b&gt;&lt;/font&gt;" style="text;html=1;align=center;verticalAlign=middle;resizable=0;points=[];autosize=1;strokeColor=none;fillColor=none;strokeWidth=4;fontSize=14;" vertex="1" parent="2NGLu3flXbiZgfrD2o1z-140">
          <mxGeometry x="91.3796860812038" y="39.00000000000001" width="73" height="35" as="geometry" />
        </mxCell>
        <mxCell id="2NGLu3flXbiZgfrD2o1z-138" value="&lt;font style=&quot;font-size: 19px;&quot; color=&quot;#666666&quot;&gt;&lt;b style=&quot;&quot;&gt;\(e_2\)&lt;/b&gt;&lt;/font&gt;" style="text;html=1;align=center;verticalAlign=middle;resizable=0;points=[];autosize=1;strokeColor=none;fillColor=none;strokeWidth=4;fontSize=14;" vertex="1" parent="2NGLu3flXbiZgfrD2o1z-140">
          <mxGeometry y="65.97000000000001" width="73" height="35" as="geometry" />
        </mxCell>
        <mxCell id="2NGLu3flXbiZgfrD2o1z-141" value="&lt;font style=&quot;font-size: 19px;&quot; color=&quot;#666666&quot;&gt;&lt;b style=&quot;&quot;&gt;\(e_3\)&lt;/b&gt;&lt;/font&gt;" style="text;html=1;align=center;verticalAlign=middle;resizable=0;points=[];autosize=1;strokeColor=none;fillColor=none;strokeWidth=4;fontSize=14;" vertex="1" parent="2NGLu3flXbiZgfrD2o1z-140">
          <mxGeometry x="142.16389025813984" y="68.42000000000002" width="73" height="35" as="geometry" />
        </mxCell>
        <mxCell id="2NGLu3flXbiZgfrD2o1z-165" value="" style="group;strokeWidth=2;" vertex="1" connectable="0" parent="1">
          <mxGeometry x="761.19" y="48.5" width="329.63" height="140" as="geometry" />
        </mxCell>
        <mxCell id="2NGLu3flXbiZgfrD2o1z-155" value="" style="rounded=1;whiteSpace=wrap;html=1;strokeWidth=4;fillColor=none;strokeColor=light-dark(#6c8ebf, #46a8af);" vertex="1" parent="2NGLu3flXbiZgfrD2o1z-165">
          <mxGeometry x="53.70971242424252" width="199.77575757575755" height="140" as="geometry" />
        </mxCell>
        <mxCell id="2NGLu3flXbiZgfrD2o1z-156" value="&lt;div style=&quot;text-align: left;&quot;&gt;&lt;span style=&quot;background-color: initial;&quot;&gt;&lt;font style=&quot;font-size: 24px;&quot; face=&quot;Courier New&quot;&gt;&lt;b style=&quot;&quot;&gt;\(e_1\)&lt;/b&gt;&lt;/font&gt;&lt;/span&gt;&lt;/div&gt;" style="ellipse;whiteSpace=wrap;html=1;aspect=fixed;strokeWidth=2;fillColor=#b1ddf0;strokeColor=#10739e;" vertex="1" parent="2NGLu3flXbiZgfrD2o1z-165">
          <mxGeometry x="205.53928818181825" y="10" width="29.966363636363635" height="29.966363636363635" as="geometry" />
        </mxCell>
        <mxCell id="2NGLu3flXbiZgfrD2o1z-157" value="&lt;div style=&quot;text-align: left;&quot;&gt;&lt;span style=&quot;background-color: initial;&quot;&gt;&lt;font style=&quot;font-size: 24px;&quot; face=&quot;Courier New&quot;&gt;&lt;b style=&quot;&quot;&gt;\(e_0\)&lt;/b&gt;&lt;/font&gt;&lt;/span&gt;&lt;/div&gt;" style="ellipse;whiteSpace=wrap;html=1;aspect=fixed;strokeWidth=2;fillColor=#b1ddf0;strokeColor=#10739e;" vertex="1" parent="2NGLu3flXbiZgfrD2o1z-165">
          <mxGeometry x="73.68728818181827" y="10" width="29.966363636363635" height="29.966363636363635" as="geometry" />
        </mxCell>
        <mxCell id="2NGLu3flXbiZgfrD2o1z-158" value="&lt;div style=&quot;text-align: left;&quot;&gt;&lt;span style=&quot;background-color: initial;&quot;&gt;&lt;font style=&quot;font-size: 24px;&quot; face=&quot;Courier New&quot;&gt;&lt;b style=&quot;&quot;&gt;\(e_3\)&lt;/b&gt;&lt;/font&gt;&lt;/span&gt;&lt;/div&gt;" style="ellipse;whiteSpace=wrap;html=1;aspect=fixed;strokeWidth=2;fillColor=#b1ddf0;strokeColor=#10739e;" vertex="1" parent="2NGLu3flXbiZgfrD2o1z-165">
          <mxGeometry x="73.68728818181827" y="58" width="29.966363636363635" height="29.966363636363635" as="geometry" />
        </mxCell>
        <mxCell id="2NGLu3flXbiZgfrD2o1z-159" value="&lt;div style=&quot;text-align: left;&quot;&gt;&lt;span style=&quot;background-color: initial;&quot;&gt;&lt;font style=&quot;font-size: 24px;&quot; face=&quot;Courier New&quot;&gt;&lt;b style=&quot;&quot;&gt;\(e_2\)&lt;/b&gt;&lt;/font&gt;&lt;/span&gt;&lt;/div&gt;" style="ellipse;whiteSpace=wrap;html=1;aspect=fixed;strokeWidth=2;fillColor=#b1ddf0;strokeColor=#10739e;" vertex="1" parent="2NGLu3flXbiZgfrD2o1z-165">
          <mxGeometry x="205.53928818181825" y="58" width="29.966363636363635" height="29.966363636363635" as="geometry" />
        </mxCell>
        <mxCell id="2NGLu3flXbiZgfrD2o1z-160" style="rounded=0;orthogonalLoop=1;jettySize=auto;html=1;endArrow=openThin;endFill=0;strokeColor=#82b366;strokeWidth=3;fillColor=#d5e8d4;endSize=3;entryX=0;entryY=0.5;entryDx=0;entryDy=0;exitX=1;exitY=0.5;exitDx=0;exitDy=0;startSize=3;" edge="1" parent="2NGLu3flXbiZgfrD2o1z-165" source="2NGLu3flXbiZgfrD2o1z-157" target="2NGLu3flXbiZgfrD2o1z-156">
          <mxGeometry relative="1" as="geometry">
            <mxPoint x="-95.4974756729456" y="54.84931506849307" as="sourcePoint" />
            <mxPoint x="-87.89604515151504" y="56.16438356164383" as="targetPoint" />
          </mxGeometry>
        </mxCell>
        <mxCell id="2NGLu3flXbiZgfrD2o1z-161" style="rounded=0;orthogonalLoop=1;jettySize=auto;html=1;endArrow=openThin;endFill=0;strokeColor=#82b366;strokeWidth=3;fillColor=#d5e8d4;endSize=3;entryX=1;entryY=0.5;entryDx=0;entryDy=0;exitX=0;exitY=0.5;exitDx=0;exitDy=0;startSize=3;" edge="1" parent="2NGLu3flXbiZgfrD2o1z-165" source="2NGLu3flXbiZgfrD2o1z-159" target="2NGLu3flXbiZgfrD2o1z-158">
          <mxGeometry relative="1" as="geometry">
            <mxPoint x="113.64243969696979" y="35" as="sourcePoint" />
            <mxPoint x="215.52807606060603" y="35" as="targetPoint" />
            <Array as="points" />
          </mxGeometry>
        </mxCell>
        <mxCell id="2NGLu3flXbiZgfrD2o1z-162" style="rounded=0;orthogonalLoop=1;jettySize=auto;html=1;endArrow=openThin;endFill=0;strokeColor=#82b366;strokeWidth=3;fillColor=#d5e8d4;endSize=3;entryX=-0.041;entryY=0.233;entryDx=0;entryDy=0;exitX=1;exitY=0.5;exitDx=0;exitDy=0;startSize=3;entryPerimeter=0;" edge="1" parent="2NGLu3flXbiZgfrD2o1z-165" source="2NGLu3flXbiZgfrD2o1z-157" target="2NGLu3flXbiZgfrD2o1z-159">
          <mxGeometry relative="1" as="geometry">
            <mxPoint x="215.52807606060603" y="80" as="sourcePoint" />
            <mxPoint x="113.64243969696979" y="80" as="targetPoint" />
            <Array as="points" />
          </mxGeometry>
        </mxCell>
        <mxCell id="2NGLu3flXbiZgfrD2o1z-164" value="&lt;div style=&quot;text-align: left;&quot;&gt;&lt;span style=&quot;background-color: initial;&quot;&gt;&lt;font style=&quot;font-size: 24px;&quot; face=&quot;Courier New&quot;&gt;&lt;b style=&quot;&quot;&gt;\(0 &amp;lt; e_1 - e_0 &amp;lt; 2\)&lt;/b&gt;&lt;/font&gt;&lt;/span&gt;&lt;/div&gt;" style="text;html=1;align=center;verticalAlign=middle;resizable=0;points=[];autosize=1;strokeColor=none;fillColor=none;strokeWidth=3;" vertex="1" parent="2NGLu3flXbiZgfrD2o1z-165">
          <mxGeometry x="-12.98542424242424" y="89.99910958904104" width="330" height="40" as="geometry" />
        </mxCell>
        <mxCell id="_lGmPWogJOjAXytLMEd4-275" value="" style="html=1;shadow=1;dashed=0;align=center;verticalAlign=middle;shape=mxgraph.arrows2.arrow;dy=0.62;dx=18.73;notch=0;fillColor=#f8cecc;strokeColor=#b85450;strokeWidth=4;fontSize=14;" parent="2NGLu3flXbiZgfrD2o1z-165" vertex="1">
          <mxGeometry x="11.796758484848656" y="44.91499999999999" width="31.69442393939394" height="33.5" as="geometry" />
        </mxCell>
      </root>
    </mxGraphModel>
  </diagram>
</mxfile>
